<svg width="271" height="271" viewBox="0 0 271 271" fill="none" xmlns="http://www.w3.org/2000/svg">
<path fill-rule="evenodd" clip-rule="evenodd" d="M270.75 135.375C270.75 105.493 253.251 85.5285 223.511 85.5285H181.93C183.198 72.4327 183.825 60.5625 183.825 49.875C183.825 21.9022 158.033 0 131.955 0C111.806 0 106.163 11.5425 102.757 38.2327C102.7 38.7172 101.417 49.0912 100.976 52.4115C100.192 58.2112 99.3795 63.384 98.382 68.5567C94.4918 88.7062 84.2887 110.509 73.7722 123.291C71.796 121.525 69.6143 120.004 67.2743 118.759C61.4745 115.653 54.6915 114 44.9302 114H40.5698C30.8085 114 24.0397 115.653 18.2257 118.759C12.4885 121.797 7.79671 126.488 4.7595 132.226C1.653 138.026 0 144.808 0 154.57V230.18C0 239.942 1.653 246.71 4.7595 252.524C7.866 258.324 12.426 262.884 18.2257 265.991C24.0255 269.097 30.8085 270.75 40.5698 270.75H44.9302C54.6915 270.75 61.4603 269.097 67.2743 265.991C70.623 264.195 73.5585 261.915 76.038 259.193C85.9703 266.674 99.978 270.75 118.574 270.75H182.015C203.191 270.75 218.566 262.87 228.37 249.56C232.417 244.088 234.17 240.269 236.878 232.945C237.471 231.806 238.252 230.776 239.186 229.895C239.557 229.496 240.754 228.299 242.15 226.903C244.074 224.993 246.368 222.699 247.408 221.587C252.011 216.657 255.617 211.755 258.552 205.87C263.639 195.71 264.337 187.943 263.354 174.904C262.984 169.917 262.969 168.292 263.24 167.181C263.725 165.115 264.309 163.405 265.335 160.811L266.276 158.446C269.411 150.58 270.75 144.609 270.75 135.375ZM129.219 56.2163C129.703 52.6395 131.057 41.7097 131.029 41.838C131.912 34.9552 132.653 30.894 133.423 28.557C144.253 29.3978 155.325 39.2445 155.325 49.875C155.325 63.4837 154.185 79.5435 151.876 98.0115C151.626 100.016 151.805 102.051 152.4 103.981C152.996 105.912 153.996 107.693 155.332 109.208C156.669 110.723 158.313 111.936 160.154 112.767C161.995 113.598 163.992 114.028 166.012 114.028H223.511C236.621 114.028 242.25 120.455 242.25 135.375C242.25 140.648 241.68 143.17 239.785 147.929L238.844 150.309C237.471 153.638 236.356 157.068 235.51 160.569C234.313 165.642 234.327 168.919 234.94 177.042C235.567 185.335 235.253 188.755 233.073 193.13C231.372 196.43 229.187 199.456 226.589 202.108C226.019 202.735 224.48 204.274 222.856 205.898C221.017 207.722 219.079 209.66 218.31 210.487C214.519 214.562 211.883 218.381 210.145 223.055C208.321 227.972 207.409 229.981 205.442 232.66C200.968 238.716 194.071 242.25 182.015 242.25H118.56C92.4397 242.25 85.5428 234.156 85.5428 213.75V151.762C104.21 136.03 120.569 103.94 126.355 73.9575C127.452 68.1863 128.364 62.5148 129.219 56.2163ZM31.6635 143.882C33.3165 143.013 35.625 142.5 40.5698 142.5H44.9302C49.875 142.5 52.1835 143.013 53.8365 143.896C54.6025 144.277 55.2231 144.897 55.6035 145.663C56.487 147.316 57 149.611 57 154.57V230.18C57 235.139 56.487 237.434 55.6035 239.087C55.2256 239.858 54.6048 240.484 53.8365 240.868C52.1835 241.737 49.875 242.25 44.9302 242.25H40.5698C35.625 242.25 33.3165 241.737 31.6635 240.854C30.8975 240.473 30.2769 239.853 29.8965 239.087C29.013 237.434 28.5 235.125 28.5 230.18V154.57C28.5 149.611 29.013 147.316 29.8965 145.663C30.2769 144.897 30.8975 144.263 31.6635 143.882Z" fill="url(#paint0_linear_8_21)"/>
<defs>
<linearGradient id="paint0_linear_8_21" x1="-5.91222" y1="13.8053" x2="264.189" y2="357.057" gradientUnits="userSpaceOnUse">
<stop stop-color="#5EA9FF"/>
<stop offset="1" stop-color="#122391"/>
</linearGradient>
</defs>
</svg>
