<svg width="207" height="275" viewBox="0 0 207 275" fill="none" xmlns="http://www.w3.org/2000/svg">
<path d="M9.57739 79.5682C14.2441 54.4015 39.1774 2.06821 101.577 0.0682129C179.577 -2.43179 195.577 64.5682 193.077 72.5682C192.577 74.0682 191.077 75.5682 182.577 78.5682C178.577 58.0682 169.577 14.5682 101.577 12.5682C79.8202 13.5352 44.037 21.0476 26.7789 66.7523C26.1897 68.3127 26.0774 69.5682 24.5774 71.0682C23.0774 72.5682 21.6866 73.1807 19.5774 74.2642C14.8423 76.6964 9.57739 79.5682 9.57739 79.5682Z" fill="url(#paint0_linear_6_18)"/>
<path fill-rule="evenodd" clip-rule="evenodd" d="M10.5774 125.068C7.5774 123.568 1.3774 119.368 0.577397 114.568C-0.422603 108.568 -0.922603 98.0682 6.0774 89.5682C11.6774 82.7682 74.7441 59.7349 105.577 49.0682C105.577 45.7349 105.577 40.5682 111.577 35.5682C118.577 29.5682 129.577 31.5682 129.577 31.5682C138.577 33.0682 144.077 41.0682 144.577 44.5682C145.577 48.5682 145.435 54.0682 144.077 60.0682C142.077 66.0682 136.577 71.5682 126.577 72.0682C123.911 72.0682 118.077 71.4682 116.077 69.0682L13.5774 109.068C11.5774 110.068 8.1774 114.668 10.5774 125.068ZM125.577 41.5682C115.577 41.5682 115.577 51.5682 115.577 51.5682C115.577 51.5682 115.077 59.5682 125.077 60.5682C135.077 60.0126 135.077 52.0682 135.077 52.0682C135.077 52.0682 135.577 41.5682 125.577 41.5682Z" fill="url(#paint1_linear_6_18)"/>
<path fill-rule="evenodd" clip-rule="evenodd" d="M93.5774 119.068C93.5774 119.068 175.575 86.4187 192.5 79.5C194.257 78.7818 195.543 78.608 196.5 77.5C197.457 76.392 197.258 76.1627 197.5 75C198.106 72.0907 197.624 67.6776 196.077 64.0682C199.411 66.2349 206.077 72.1682 206.077 78.5682C206.077 86.5682 202.077 98.5682 194.077 102.568C187.677 105.768 129.411 128.235 101.077 139.068C101.077 144.235 97.6774 154.668 84.0774 155.068C70.4774 155.468 64.4107 144.902 63.0774 139.568C62.0774 134.568 61.7123 127.775 67.0774 121.068C72.5774 114.193 86.0774 112.068 93.5774 119.068ZM74.3274 141.568C74.3274 141.568 77.0774 144.568 81.5774 144.568C86.0774 144.568 88.5774 142.068 88.5774 142.068C88.5774 142.068 91.5774 140.068 91.5774 135.568C91.5774 131.068 88.5774 129.068 88.5774 129.068C88.5774 129.068 85.5774 126.068 81.5774 126.068C77.5774 126.068 74.5774 128.568 74.5774 128.568C74.5774 128.568 71.5774 131.568 71.5774 135.568C71.5774 139.568 74.3274 141.568 74.3274 141.568Z" fill="url(#paint2_linear_6_18)"/>
<path d="M24.0774 109.068C24.0774 109.068 12.6774 111.468 13.0774 119.068C13.4774 126.668 18.2441 135.902 20.5774 139.068C23.0308 142.368 27.0027 147.943 32.5774 154.568C37.8856 160.877 44.6756 167.667 51.211 174.202L51.5774 174.568C52.0774 175.068 53.0774 176.968 53.0774 180.568V213.568C52.9107 216.235 55.5774 224.068 58.5774 228.068C61.5774 232.068 69.0774 240.568 78.5774 240.568H129.077C134.577 240.568 146.477 236.968 150.077 222.568L150.15 222.2C151.045 217.64 152.577 209.841 152.577 201.568V179.568C152.577 177.402 153.277 172.568 156.077 170.568C158.877 168.568 172.244 155.735 178.577 149.568C181.744 145.568 189.577 135.468 191.577 127.068C193.577 118.668 196.911 109.402 197.077 107.568C197.244 107.068 196.077 108.568 192.577 110.568C189.077 112.568 184.744 113.568 182.077 114.568C181.577 117.068 180.177 122.768 178.577 125.568C176.577 129.068 177.077 134.068 158.577 153.568C155.377 156.368 147.911 164.068 144.577 167.568C143.577 168.735 141.577 172.068 141.577 176.068C141.577 180.068 140.911 203.401 140.577 214.568C140.077 221.568 135.077 229.22 123.577 229.568C110.377 229.968 92.4107 230.068 83.5774 230.068C73.5774 229.568 68.5774 224.068 66.5774 215.068L65.5774 177.068C65.4107 174.402 63.5774 167.768 57.5774 162.568C50.0774 156.068 39.5774 147.568 33.0774 135.068C27.8774 125.068 24.0774 114.568 24.0774 109.068Z" fill="url(#paint3_linear_6_18)"/>
<path d="M78.5774 244.068H126.577C130.016 244.068 130.02 251.068 126.577 251.068C121.777 251.068 92.5774 251.401 78.5774 251.068C75.5774 251.068 75.5774 247.568 75.5774 247.568C75.5774 247.568 75.5774 244.068 78.5774 244.068Z" fill="url(#paint4_linear_6_18)"/>
<path d="M80.5774 254.068H124.577C126.577 254.068 126.577 257.318 126.577 257.318C126.577 257.318 126.577 260.568 124.577 260.568H80.5774C78.5774 260.568 78.5774 257.318 78.5774 257.318C78.5774 257.318 78.5774 254.068 80.5774 254.068Z" fill="url(#paint5_linear_6_18)"/>
<path d="M83.5774 263.068H121.577C124.577 263.068 124.577 265.568 124.577 265.568C124.577 265.568 124.577 268.568 121.577 268.568H110.577L106.577 272.568C104.577 274.568 102.577 274.568 102.577 274.568C102.577 274.568 100.077 274.568 98.5774 272.568L95.5774 268.568H83.5774C80.5774 268.568 80.5774 265.568 80.5774 265.568C80.5774 265.568 80.5774 263.068 83.5774 263.068Z" fill="url(#paint6_linear_6_18)"/>
<defs>
<linearGradient id="paint0_linear_6_18" x1="-4.5" y1="14" x2="277" y2="282.5" gradientUnits="userSpaceOnUse">
<stop stop-color="#FFC55E"/>
<stop offset="1" stop-color="#F5A312"/>
</linearGradient>
<linearGradient id="paint1_linear_6_18" x1="-4.5" y1="14" x2="277" y2="282.5" gradientUnits="userSpaceOnUse">
<stop stop-color="#FFC55E"/>
<stop offset="1" stop-color="#F5A312"/>
</linearGradient>
<linearGradient id="paint2_linear_6_18" x1="-4.5" y1="14" x2="277" y2="282.5" gradientUnits="userSpaceOnUse">
<stop stop-color="#FFC55E"/>
<stop offset="1" stop-color="#F5A312"/>
</linearGradient>
<linearGradient id="paint3_linear_6_18" x1="-4.5" y1="14" x2="277" y2="282.5" gradientUnits="userSpaceOnUse">
<stop stop-color="#FFC55E"/>
<stop offset="1" stop-color="#F5A312"/>
</linearGradient>
<linearGradient id="paint4_linear_6_18" x1="-4.5" y1="14" x2="277" y2="282.5" gradientUnits="userSpaceOnUse">
<stop stop-color="#FFC55E"/>
<stop offset="1" stop-color="#F5A312"/>
</linearGradient>
<linearGradient id="paint5_linear_6_18" x1="-4.5" y1="14" x2="277" y2="282.5" gradientUnits="userSpaceOnUse">
<stop stop-color="#FFC55E"/>
<stop offset="1" stop-color="#F5A312"/>
</linearGradient>
<linearGradient id="paint6_linear_6_18" x1="-4.5" y1="14" x2="277" y2="282.5" gradientUnits="userSpaceOnUse">
<stop stop-color="#FFC55E"/>
<stop offset="1" stop-color="#F5A312"/>
</linearGradient>
</defs>
</svg>
